<svg xmlns="http://www.w3.org/2000/svg" width="800" height="400" viewBox="0 0 800 400">
  <rect width="800" height="400" fill="#f0ebe4"/>
  <g stroke="#d4c9bc" stroke-width="1.5" fill="none" opacity="0.6">
    <!-- Carrot -->
    <path d="M100 200 L120 160 L110 200 Z M115 160 L112 140 M115 160 L120 142 M115 160 L108 145"/>
    <!-- Apple -->
    <circle cx="200" cy="200" r="25"/><path d="M200 175 Q205 160 210 170"/>
    <!-- Leaf -->
    <path d="M300 210 Q320 180 340 210 Q320 190 300 210Z"/>
    <!-- Mushroom -->
    <path d="M420 220 L430 190 Q440 170 460 190 L470 220 M445 190 L445 220"/>
    <!-- Pepper -->
    <ellipse cx="560" cy="200" rx="20" ry="30"/><path d="M560 170 L558 155 M562 170 L565 158"/>
    <!-- Onion -->
    <circle cx="680" cy="200" r="22"/><path d="M680 178 L680 165"/><path d="M665 200 Q680 185 695 200"/>
  </g>
  <text x="400" y="350" text-anchor="middle" font-family="system-ui" font-size="14" fill="#b8a898">Ingen bilde ennå</text>
</svg>
